<svg width="515" height="516" viewBox="0 0 515 516" fill="none" xmlns="http://www.w3.org/2000/svg">
<path d="M257 25C257 11.1929 268.193 0 282 0H361C374.807 0 386 11.1929 386 25V104C386 117.807 374.807 129 361 129H282C268.193 129 257 117.807 257 104V25Z" fill="#9CC5DD"/>
<path d="M129 322.5C129 286.878 157.878 258 193.5 258C229.122 258 258 286.878 258 322.5C258 358.122 229.122 387 193.5 387C157.878 387 129 358.122 129 322.5Z" fill="#8AACBF"/>
<path d="M257 193.5C257 157.878 285.878 129 321.5 129C357.122 129 386 157.878 386 193.5C386 229.122 357.122 258 321.5 258C285.878 258 257 229.122 257 193.5Z" fill="#0C4C98"/>
<path d="M129 154C129 140.193 140.193 129 154 129H233C246.807 129 258 140.193 258 154V233C258 246.807 246.807 258 233 258H154C140.193 258 129 246.807 129 233V154Z" fill="white"/>
<path d="M386 154C386 140.193 397.193 129 411 129H490C503.807 129 515 140.193 515 154V233C515 246.807 503.807 258 490 258H411C397.193 258 386 246.807 386 233V154Z" fill="#0C4C98"/>
<path d="M257 283C257 269.193 268.193 258 282 258H361C374.807 258 386 269.193 386 283V362C386 375.807 374.807 387 361 387H282C268.193 387 257 375.807 257 362V283Z" fill="#9CC5DD"/>
<path d="M129 412C129 398.193 140.193 387 154 387H233C246.807 387 258 398.193 258 412V491C258 504.807 246.807 516 233 516H154C140.193 516 129 504.807 129 491V412Z" fill="white"/>
<path d="M0 283C0 269.193 11.1929 258 25 258H104C117.807 258 129 269.193 129 283V362C129 375.807 117.807 387 104 387H25C11.1929 387 0 375.807 0 362V283Z" fill="#0C4C98"/>
</svg>
