<svg width="90" height="145" viewBox="0 0 90 145" fill="none" xmlns="http://www.w3.org/2000/svg">
<path fill-rule="evenodd" clip-rule="evenodd" d="M82 45V100C82 120.435 65.4345 137 45 137C24.5655 137 8 120.435 8 100V45C8 24.5655 24.5655 8 45 8C65.4345 8 82 24.5655 82 45ZM0 45C0 20.1472 20.1472 0 45 0C69.8528 0 90 20.1472 90 45V100C90 124.853 69.8528 145 45 145C20.1472 145 0 124.853 0 100V45ZM44.6512 75.4525C60.8344 75.4525 73.9535 62.8212 73.9535 47.2398C73.9535 31.6584 60.8344 19.0271 44.6512 19.0271C28.4679 19.0271 15.3488 31.6584 15.3488 47.2398C15.3488 62.8212 28.4679 75.4525 44.6512 75.4525Z" fill="white"/>
</svg>
