<?xml version="1.0" encoding="iso-8859-1"?>
<!-- Generator: Adobe Illustrator 19.0.0, SVG Export Plug-In . SVG Version: 6.00 Build 0)  -->
<svg version="1.1" id="Layer_1" xmlns="http://www.w3.org/2000/svg" xmlns:xlink="http://www.w3.org/1999/xlink" x="0px" y="0px"
	 viewBox="0 0 511.998 511.998" style="enable-background:new 0 0 511.998 511.998;" xml:space="preserve">
<path style="fill:#5286FA;" d="M462.602,251.1L81.963,4.702c-9.004-5.827-20.468-6.27-29.891-1.154l0,0
	c-9.424,5.116-15.299,14.971-15.317,25.693L36.023,482.66c-0.02,12.442,7.822,23.537,19.556,27.673
	c3.191,1.125,6.475,1.666,9.728,1.666c8.717,0,17.187-3.899,22.856-10.968l139.525-173.982l0,0L449.6,304.831
	c12.38-1.24,22.625-10.166,25.551-22.256C478.079,270.484,473.047,257.862,462.602,251.1z"/>
<path style="fill:#424EDE;" d="M36.758,29.243L36.025,482.66c-0.02,12.442,7.822,23.537,19.556,27.673
	c3.191,1.125,6.475,1.666,9.728,1.666c8.717,0,17.187-3.899,22.856-10.968L227.69,327.049L52.074,3.55
	C42.651,8.666,36.775,18.521,36.758,29.243z"/>
<g>
</g>
<g>
</g>
<g>
</g>
<g>
</g>
<g>
</g>
<g>
</g>
<g>
</g>
<g>
</g>
<g>
</g>
<g>
</g>
<g>
</g>
<g>
</g>
<g>
</g>
<g>
</g>
<g>
</g>
</svg>
